# xmcd
#
# Track frame offsets: 
#        150
#        28060
#        55227
#        78787
#        106342
#        135247
#        157300
#        193450
#        227962
#
# Disc length: 3899 seconds
#
# Revision: 0
# Processed by: cddbd v1.5.2PL0 Copyright (c) Steve Scherf et al.
# Submitted via: ExactAudioCopy v0.99pb5
#
DISCID=770f3909
DTITLE=5 Live - in the kitchen
DYEAR=2008
DGENRE=Rock
TTITLE0=Little By Little
TTITLE1=How Long
TTITLE2=Days Alone
TTITLE3=Spooky
TTITLE4=New Love
TTITLE5=Drown In My Own Tears
TTITLE6=Too Through With You
TTITLE7=Get Closer
TTITLE8=Lonley Town
EXTD=
EXTT0=
EXTT1=
EXTT2=
EXTT3=
EXTT4=
EXTT5=
EXTT6=
EXTT7=
EXTT8=
PLAYORDER=
